<?xml version="1.0"?>
<svg xmlns="http://www.w3.org/2000/svg" height="512px" viewBox="-77 0 512 512.00003" width="512px"><path d="m179.230469 512c98.925781-.113281 179.089843-80.277344 179.199219-179.199219.054687-38.15625-12.1875-75.3125-34.90625-105.96875-.144532-.3125-.308594-.617187-.488282-.910156l-136.53125-221.867187c-1.558594-2.523438-4.308594-4.05859425-7.273437-4.054688-2.957031 0-5.703125 1.527344-7.261719 4.042969l-141.214844 228.40625c-55.425781 81.996093-33.882812 193.394531 48.113282 248.816406 29.636718 20.03125 64.589843 30.738281 100.363281 30.734375zm-8.53125-148.597656-17.066407-17.066406v-27.0625c10.828126 9.332031 17.058594 22.914062 17.066407 37.207031zm-46.199219-22.070313h-19.628906c-1.601563-4.886719-2.421875-10-2.4375-15.144531v-6.921875zm-10.003906-34.132812h6.921875c5.144531.003906 10.253906.816406 15.148437 2.40625v19.628906zm27.070312 51.199219 17.066406 17.066406h-6.921874c-14.292969-.007813-27.875-6.238282-37.203126-17.066406zm-96.503906-116.675782 134.167969-216.976562 128.257812 208.417968c.289063.839844.710938 1.625 1.246094 2.332032 53.832031 71.273437 39.691406 172.699218-31.585937 226.53125-25.867188 19.535156-57.007813 30.847656-89.382813 32.472656v-101.96875h18.984375c36.625-.039062 66.304688-29.71875 66.347656-66.34375v-27.519531c0-4.714844-3.820312-8.535157-8.53125-8.535157h-27.523437c-23.980469.023438-46.082031 12.984376-57.8125 33.902344-11.726563-20.917968-33.832031-33.878906-57.8125-33.902344h-27.519531c-4.714844 0-8.535157 3.820313-8.535157 8.535157v27.519531c.042969 36.625 29.722657 66.304688 66.347657 66.34375h18.988281v101.96875c-89.355469-4.644531-158.023438-80.839844-153.382813-170.195312 1.535156-29.542969 11.128906-58.101563 27.746094-82.582032zm176.835938 87.542969v-19.625c4.890624-1.601563 10-2.425781 15.148437-2.441406h6.917969zm34.132812-10v6.921875c-.003906 5.140625-.816406 10.253906-2.40625 15.144531h-19.625zm-12.074219 39.132813c-9.328125 10.828124-22.910156 17.058593-37.203125 17.066406h-6.921875l17.066407-17.066406zm-39.125-12.066407-17.066406 17.066407v-6.917969c.007813-14.292969 6.238281-27.875 17.066406-37.207031zm0 0" fill="#FFFFFF"/><path d="m221.898438 213.332031h17.066406v17.066407h-17.066406zm0 0" fill="#FFFFFF"/><path d="m204.832031 230.398438h17.066407v17.066406h-17.066407zm0 0" fill="#FFFFFF"/><path d="m238.964844 230.398438h17.066406v17.066406h-17.066406zm0 0" fill="#FFFFFF"/><path d="m221.898438 247.464844h17.066406v17.066406h-17.066406zm0 0" fill="#FFFFFF"/><path d="m145.097656 179.199219h17.066406v17.066406h-17.066406zm0 0" fill="#FFFFFF"/><path d="m128.03125 196.265625h17.066406v17.066406h-17.066406zm0 0" fill="#FFFFFF"/><path d="m162.164062 196.265625h17.066407v17.066406h-17.066407zm0 0" fill="#FFFFFF"/><path d="m145.097656 213.332031h17.066406v17.066407h-17.066406zm0 0" fill="#FFFFFF"/></svg>
