<?xml version="1.0"?>
<svg xmlns="http://www.w3.org/2000/svg" height="512px" viewBox="0 0 512 512.00002" width="512px"><path d="m503.464844 409.601562h-8.53125v-59.734374c0-4.714844-3.820313-8.535157-8.535156-8.535157h-17.066407v-17.917969c23.054688-4.671874 37.957031-27.144531 33.289063-50.199218-2.785156-13.738282-12.148438-25.226563-25.042969-30.722656-2.746094-23.40625-23.941406-40.152344-47.34375-37.410157-19.632813 2.300781-35.109375 17.78125-37.410156 37.410157-21.640625 9.222656-31.703125 34.238281-22.480469 55.878906 5.496094 12.894531 16.984375 22.257812 30.722656 25.042968v17.917969h-17.066406c-4.714844 0-8.535156 3.820313-8.535156 8.535157v59.734374h-59.730469v-59.734374c0-4.714844-3.820313-8.535157-8.535156-8.535157h-42.667969v-25.597656h9.601562c32.386719-.039063 58.628907-26.28125 58.667969-58.667969v-18.132812c0-4.710938-3.820312-8.53125-8.535156-8.53125h-18.132813c-20.523437.023437-39.539062 10.777344-50.132812 28.355468-10.597656-17.578124-29.609375-28.332031-50.132812-28.355468h-18.132813c-4.714844 0-8.535156 3.820312-8.535156 8.53125v18.132812c.039062 32.386719 26.28125 58.628906 58.667969 58.667969h9.597656v25.597656h-42.664063c-4.714843 0-8.535156 3.820313-8.535156 8.535157v59.734374h-51.199219v-59.734374c0-4.714844-3.820312-8.535157-8.535156-8.535157h-8.53125v-12.21875c21.53125-9.328125 31.425781-34.34375 22.097656-55.875-4.335937-10.003906-12.351562-17.960937-22.386718-22.222656-2.746094-23.402344-23.941407-40.152344-47.34375-37.410156-19.628907 2.300781-35.109376 17.78125-37.410157 37.410156-21.601562 9.167969-31.679687 34.109375-22.511719 55.710937 4.257813 10.039063 12.214844 18.050782 22.222657 22.386719v12.21875h-8.535157c-4.710937 0-8.53125 3.820313-8.53125 8.535157v59.734374h-17.066406c-4.714844 0-8.535156 3.820313-8.535156 8.53125v51.199219c0 4.714844 3.820312 8.535157 8.535156 8.535157h34.132813v25.597656c0 4.714844 3.820312 8.535156 8.53125 8.535156h85.335937c4.710938 0 8.53125-3.820312 8.53125-8.535156v-25.597656h221.867188v25.597656c0 4.714844 3.820312 8.535156 8.53125 8.535156h85.335937c4.710938 0 8.53125-3.820312 8.53125-8.535156v-25.597656h34.132813c4.714844 0 8.535156-3.820313 8.535156-8.535157v-51.199219c0-4.710937-3.820312-8.53125-8.535156-8.53125zm-238.929688-120.535156c.027344-22.964844 18.636719-41.570312 41.597656-41.601562h9.601563v9.601562c-.027344 22.964844-18.636719 41.570313-41.601563 41.601563h-9.597656zm119.464844-7.464844c.007812-11.695312 7.957031-21.886718 19.292969-24.75 3.875-.988281 6.542969-4.535156 6.417969-8.53125 0-.496093 0-.949218-.109376-.851562-.164062-14.140625 11.164063-25.734375 25.304688-25.894531 14.136719-.164063 25.730469 11.164062 25.894531 25.304687-.042969.316406-.128906 1.160156-.136719 1.476563-.125 3.996093 2.542969 7.542969 6.417969 8.53125 13.679688 3.433593 21.988281 17.308593 18.554688 30.988281-2.855469 11.382812-13.101563 19.355469-24.835938 19.324219-7.382812-.003907-14.386719-3.238281-19.175781-8.855469-3.101562-3.550781-8.492188-3.914062-12.039062-.8125-.289063.253906-.558594.523438-.8125.8125-4.785157 5.617188-11.792969 8.851562-19.171876 8.855469-14.140624 0-25.601562-11.460938-25.601562-25.597657zm68.265625 41.675782v18.054687h-34.132813v-18.054687c6.191407-1.257813 12.019532-3.882813 17.066407-7.679688 5.046875 3.796875 10.878906 6.417969 17.066406 7.679688zm-59.734375 35.121094h85.335938v51.203124h-85.335938zm-154.664062-59.730469c-22.964844-.03125-41.570313-18.636719-41.601563-41.601563v-9.601562h9.601563c22.964843.03125 41.570312 18.636718 41.601562 41.601562v9.601563zm-24.535157 59.730469h85.335938v51.203124h-85.335938zm-179.199219-68.265626c.007813-11.691406 7.957032-21.886718 19.292969-24.746093 3.875-.988281 6.542969-4.535157 6.417969-8.535157 0-.492187-.042969-.9375-.109375-.851562-.164063-14.136719 11.164063-25.730469 25.304687-25.894531 14.136719-.164063 25.730469 11.167969 25.894532 25.304687-.042969.316406-.128906 1.160156-.136719 1.476563-.125 3.996093 2.542969 7.542969 6.417969 8.535156 13.640625 3.402344 21.9375 17.21875 18.535156 30.859375-2.269531 9.097656-9.359375 16.210938-18.449219 18.511719-3.761719.976562-6.390625 4.367187-6.394531 8.253906v18.285156h-17.039062v-38.101562l21.800781-14.503907-9.472657-14.199218-12.328124 8.191406v-18.183594h-17.070313v18.183594l-12.328125-8.21875-9.472656 14.199219 21.800781 14.535156v38.101563h-17.0625v-18.28125c-.003906-3.882813-2.632813-7.277344-6.394531-8.25-11.261719-2.90625-19.152344-13.039063-19.207032-24.671876zm8.535157 68.265626h85.332031v51.203124h-85.332031zm85.332031 136.535156h-68.265625v-17.066406h68.265625zm324.265625 0h-68.265625v-17.066406h68.265625zm42.667969-34.132813h-477.867188v-34.132812h477.867188zm0 0" fill="#FFFFFF"/><path d="m281.601562 59.734375c-.046874-10.8125-6.875-20.429687-17.066406-24.03125v-35.703125h-17.070312v35.703125c-13.296875 4.738281-20.234375 19.355469-15.496094 32.652344 4.734375 13.296875 19.351562 20.234375 32.648438 15.5 10.199218-3.632813 17.003906-13.296875 16.984374-24.121094zm-25.601562 8.53125c-4.714844 0-8.535156-3.820313-8.535156-8.53125 0-4.714844 3.820312-8.535156 8.535156-8.535156 4.710938 0 8.53125 3.820312 8.53125 8.535156 0 4.710937-3.820312 8.53125-8.53125 8.53125zm0 0" fill="#FFFFFF"/><path d="m460.800781 59.734375c-.046875-10.8125-6.875-20.429687-17.066406-24.03125v-35.703125h-17.066406v35.703125c-13.296875 4.738281-20.238281 19.355469-15.5 32.652344 4.734375 13.296875 19.355469 20.234375 32.652343 15.5 10.195313-3.632813 17-13.296875 16.980469-24.121094zm-25.601562 8.53125c-4.710938 0-8.53125-3.820313-8.53125-8.53125 0-4.714844 3.820312-8.535156 8.53125-8.535156 4.714843 0 8.535156 3.820312 8.535156 8.535156 0 4.710937-3.820313 8.53125-8.535156 8.53125zm0 0" fill="#FFFFFF"/><path d="m102.398438 59.734375c-.042969-10.8125-6.875-20.429687-17.066407-24.03125v-35.703125h-17.066406v35.703125c-13.296875 4.738281-20.234375 19.355469-15.5 32.652344 4.738281 13.296875 19.355469 20.234375 32.652344 15.5 10.199219-3.632813 17-13.296875 16.980469-24.121094zm-25.597657 8.53125c-4.714843 0-8.535156-3.820313-8.535156-8.53125 0-4.714844 3.820313-8.535156 8.535156-8.535156 4.710938 0 8.53125 3.820312 8.53125 8.535156 0 4.710937-3.820312 8.53125-8.53125 8.53125zm0 0" fill="#FFFFFF"/><path d="m247.464844 102.398438h17.066406v17.066406h-17.066406zm0 0" fill="#FFFFFF"/><path d="m247.464844 136.535156h17.066406v17.066406h-17.066406zm0 0" fill="#FFFFFF"/><path d="m247.464844 170.667969h17.066406v17.066406h-17.066406zm0 0" fill="#FFFFFF"/><path d="m273.960938 97.683594 15.261718-7.632813 8.535156 17.066407-15.265624 7.632812zm0 0" fill="#FFFFFF"/><path d="m291.023438 131.820312 15.265624-7.632812 8.53125 17.066406-15.261718 7.628906zm0 0" fill="#FFFFFF"/><path d="m308.085938 165.953125 15.265624-7.632813 8.53125 17.066407-15.261718 7.632812zm0 0" fill="#FFFFFF"/><path d="m214.226562 107.121094 8.53125-17.066406 15.265626 7.632812-8.535157 17.0625zm0 0" fill="#FFFFFF"/><path d="m197.160156 141.25 8.535156-17.066406 15.261719 7.632812-8.53125 17.066406zm0 0" fill="#FFFFFF"/><path d="m180.09375 175.386719 8.535156-17.066407 15.261719 7.632813-8.53125 17.066406zm0 0" fill="#FFFFFF"/><path d="m68.265625 102.398438h17.066406v17.066406h-17.066406zm0 0" fill="#FFFFFF"/><path d="m68.265625 136.535156h17.066406v17.066406h-17.066406zm0 0" fill="#FFFFFF"/><path d="m68.265625 170.667969h17.066406v17.066406h-17.066406zm0 0" fill="#FFFFFF"/><path d="m94.765625 97.683594 15.265625-7.628906 8.53125 17.066406-15.265625 7.628906zm0 0" fill="#FFFFFF"/><path d="m111.828125 131.8125 15.265625-7.632812 8.53125 17.066406-15.265625 7.632812zm0 0" fill="#FFFFFF"/><path d="m128.890625 165.945312 15.265625-7.628906 8.53125 17.066406-15.261719 7.628907zm0 0" fill="#FFFFFF"/><path d="m35.03125 107.113281 8.535156-17.0625 15.261719 7.628907-8.53125 17.066406zm0 0" fill="#FFFFFF"/><path d="m17.96875 141.253906 8.53125-17.066406 15.265625 7.632812-8.535156 17.066407zm0 0" fill="#FFFFFF"/><path d="m.894531 175.382812 8.53125-17.066406 15.265625 7.632813-8.535156 17.066406zm0 0" fill="#FFFFFF"/><path d="m426.667969 102.398438h17.066406v17.066406h-17.066406zm0 0" fill="#FFFFFF"/><path d="m426.667969 136.535156h17.066406v17.066406h-17.066406zm0 0" fill="#FFFFFF"/><path d="m426.667969 170.667969h17.066406v17.066406h-17.066406zm0 0" fill="#FFFFFF"/><path d="m453.15625 97.691406 15.261719-7.632812 8.535156 17.066406-15.265625 7.632812zm0 0" fill="#FFFFFF"/><path d="m470.21875 131.816406 15.265625-7.632812 8.53125 17.066406-15.265625 7.632812zm0 0" fill="#FFFFFF"/><path d="m487.28125 165.953125 15.265625-7.632813 8.53125 17.066407-15.261719 7.628906zm0 0" fill="#FFFFFF"/><path d="m393.425781 107.125 8.535157-17.066406 15.261718 7.632812-8.53125 17.066406zm0 0" fill="#FFFFFF"/><path d="m376.363281 141.253906 8.53125-17.066406 15.265625 7.632812-8.535156 17.066407zm0 0" fill="#FFFFFF"/><path d="m359.289062 175.394531 8.53125-17.066406 15.265626 7.632813-8.535157 17.066406zm0 0" fill="#FFFFFF"/><path d="m426.667969 384h17.066406v17.066406h-17.066406zm0 0" fill="#FFFFFF"/><path d="m443.734375 366.933594h17.066406v17.066406h-17.066406zm0 0" fill="#FFFFFF"/><path d="m230.398438 366.933594h17.066406v17.066406h-17.066406zm0 0" fill="#FFFFFF"/><path d="m247.464844 384h17.066406v17.066406h-17.066406zm0 0" fill="#FFFFFF"/><path d="m264.535156 366.933594h17.066406v17.066406h-17.066406zm0 0" fill="#FFFFFF"/><path d="m76.800781 366.933594h17.066407v17.066406h-17.066407zm0 0" fill="#FFFFFF"/><path d="m93.867188 384h17.066406v17.066406h-17.066406zm0 0" fill="#FFFFFF"/></svg>
